8_ID_stride2.mot
nRows=12
nColumns=38

name 8_ID_stride2.mot
datacolumns 38
datarows 12
range 0.7000000000 0.7550000000
endheader
time	pelvis_tilt_moment	pelvis_list_moment	pelvis_rotation_moment	pelvis_tx_force	pelvis_ty_force	pelvis_tz_force	hip_flexion_r_moment	hip_adduction_r_moment	hip_rotation_r_moment	knee_angle_r_moment	ankle_angle_r_moment	subtalar_angle_r_moment	mtp_angle_r_moment	hip_flexion_l_moment	hip_adduction_l_moment	hip_rotation_l_moment	knee_angle_l_moment	ankle_angle_l_moment	subtalar_angle_l_moment	mtp_angle_l_moment	lumbar_extension_moment	lumbar_bending_moment	lumbar_rotation_moment	arm_flex_r_moment	arm_add_r_moment	arm_rot_r_moment	elbow_flex_r_moment	pro_sup_r_moment	wrist_flex_r_moment	wrist_dev_r_moment	arm_flex_l_moment	arm_add_l_moment	arm_rot_l_moment	elbow_flex_l_moment	pro_sup_l_moment	wrist_flex_l_moment	wrist_dev_l_moment
        0.7000000000	        4.4297819742	       -1.6093187583	       -7.5942963195	      109.4962465556	      -56.1664156122	      -18.1494992501	        1.0811426326	      -61.1790164587	       21.7695913168	       -7.4992039098	     -187.9410753865	       40.2143056283	       -0.0605226810	       -8.6716019145	        0.5240461151	       -3.9074612054	       -1.5667177576	        2.1453923392	       -0.0800354418	        0.1247118391	       22.0466660305	       13.1197216727	      -52.8622315910	       -2.1184576847	       -4.9251927536	       -5.4213281612	        4.1883936206	       -0.2559801912	       -0.5032794492	       -0.4718279388	        8.0668111741	        8.4504733440	        6.1914226917	        4.5660356044	        0.0923993211	        0.7350871440	       -0.2357651303	
        0.7050000000	        1.9130266022	       -1.1141055296	      -15.9114385998	       79.6763189983	      -64.6060171119	      -43.0743475899	        9.1977051743	      -46.5968139593	       14.1463037532	       -8.7119183959	     -170.6306337874	       35.6634327549	       -0.0701043278	       -9.7218224876	        0.0402889484	       -3.5566597007	       -1.6027509917	        2.2319379712	       -0.1359677446	        0.1272820041	       13.4155654831	        9.5717731628	      -51.6454371973	       -1.9420491331	       -4.6371680732	       -5.2201746695	        3.6633983015	       -0.2421074418	       -0.4961807810	       -0.4242623197	        8.2074139213	        7.6990713239	        5.7618352828	        4.1389078704	        0.0911596198	        0.6873501901	       -0.2059338895	
        0.7100000000	       -1.3586794278	       -4.0852502348	      -22.8219533571	       47.6265468229	      -61.4308100261	      -58.2615547432	       12.3867391927	      -33.1274636295	        8.0468185679	      -11.7335901529	     -152.9333334065	       31.8421208025	       -0.0771993936	      -11.0909226813	       -0.2070584213	       -2.8623669747	       -1.8838132084	        2.3283843718	       -0.2156116631	        0.1312520693	        5.8083868050	        7.2882886045	      -49.3732031464	       -1.8683484019	       -4.1321244043	       -4.8393988136	        3.1164185443	       -0.2233427351	       -0.4736193090	       -0.3715043755	        8.1106573341	        6.7362135558	        5.1928331815	        3.7166112664	        0.0870378393	        0.6264258331	       -0.1792243584	
        0.7150000000	       -2.4883184642	      -10.4510951110	      -26.2656510589	       17.9943966379	      -50.6630368469	      -58.2274152174	       11.7041867012	      -23.5194843691	        5.4609737006	      -17.1946913030	     -136.1035927296	       28.6307569502	       -0.0778885877	      -12.8191295365	       -0.0056680375	       -2.0082669058	       -2.4859799922	        2.4287851178	       -0.3028638211	        0.1366310632	        0.5218160387	        7.0167970022	      -46.2416316370	       -1.9305473752	       -3.4327789861	       -4.2909126656	        2.5410849061	       -0.1998452377	       -0.4342670599	       -0.3132390668	        7.7556744810	        5.5796797515	        4.5140869485	        3.2919614804	        0.0803539896	        0.5555121960	       -0.1542724158	
        0.7200000000	       -2.7282172396	      -15.8411830308	      -27.7667796200	       -8.5933953442	      -35.0851052356	      -47.5172133935	        9.1086165141	      -16.5901729420	        4.5675663808	      -23.7650591698	     -120.2870284144	       25.7010021424	       -0.0749559186	      -14.8161104580	        1.0798394351	       -1.1830817516	       -3.3131359792	        2.5290232127	       -0.3837843440	        0.1431965202	       -2.3478450326	        7.5224874479	      -42.4615959273	       -2.2457881691	       -2.5699686690	       -3.5982054307	        1.9403776928	       -0.1722510018	       -0.3811372452	       -0.2502529663	        7.0420432674	        4.2639840721	        3.7549041547	        2.8602219065	        0.0721380481	        0.4774776852	       -0.1301111666	
        0.7250000000	       -1.7349864359	      -12.5169671101	      -28.0312152206	      -32.4187800893	      -25.3381398901	      -29.2350745182	       10.6675759134	      -10.9415648567	        4.6007223910	      -28.1628087195	     -105.3640951010	       22.4921128586	       -0.0627890729	      -16.8527889379	        3.1018122313	       -0.5720436269	       -4.1533459584	        2.6243101284	       -0.4430408617	        0.1504940652	       -2.3490770542	        9.0844349225	      -38.2447833628	       -2.7516039689	       -1.5835839675	       -2.7971395081	        1.3180970957	       -0.1412410449	       -0.3178878020	       -0.1833981530	        6.0619329911	        2.8243455203	        2.9417406903	        2.4123489768	        0.0630693226	        0.3946798308	       -0.1057514537	
        0.7300000000	       -0.9942443783	        1.2992132176	      -29.2229862466	      -55.0217951682	      -29.2449330387	      -12.5231011668	       18.8829011641	       -3.5957761900	        3.4580048434	      -26.9165134789	      -89.4251828083	       19.0623955779	       -0.0411184059	      -18.7243468722	        5.9553466794	       -0.2913018656	       -4.8054078398	        2.7071131563	       -0.4622269454	        0.1576960784	       -1.0307821283	       10.7322951261	      -33.7092006213	       -3.3695321566	       -0.5243265529	       -1.9297978606	        0.6812124038	       -0.1077654502	       -0.2481505366	       -0.1139645340	        4.8893645311	        1.3151777939	        2.0979255311	        1.9376871991	        0.0535380419	        0.3086623908	       -0.0800936248	
        0.7350000000	       -0.0231107744	       24.6190365396	      -31.7232615281	      -75.7081896622	      -45.7038647144	       -0.7889614127	       33.4528947333	        5.2776302591	        0.6018846820	      -22.0794178004	      -72.3668790254	       15.9157754891	       -0.0095723180	      -20.3078735223	        9.3677023756	       -0.2960776216	       -5.1683776678	        2.7721489525	       -0.4534393405	        0.1639630102	        1.4255458249	       11.5477031262	      -28.9626716766	       -3.9957939949	        0.5444585476	       -1.0450889196	        0.0385679775	       -0.0729971363	       -0.1762074714	       -0.0433577806	        3.6246819775	       -0.1957717939	        1.2509596946	        1.4299880249	        0.0439914018	        0.2212545930	       -0.0522454473	
        0.7400000000	        2.3242334453	       46.0391518124	      -32.9036436310	      -92.4182211589	      -77.9244165912	        7.9576680274	       45.2210763936	       12.6945002429	       -2.0607967579	      -17.5992295540	      -56.1405405358	       13.3708459128	        0.0315206055	      -21.7806548107	       12.9826648726	       -0.4991211708	       -5.4124885195	        2.8008575498	       -0.4077448580	        0.1682656036	        3.3552843184	       11.5466886920	      -24.0952845797	       -4.5384857197	        1.5571007180	       -0.1905822456	       -0.5950476144	       -0.0382636735	       -0.1060397119	        0.0266413282	        2.3579274806	       -1.6340821867	        0.4313747042	        0.8915650753	        0.0348140408	        0.1346927496	       -0.0218288988	
        0.7450000000	        7.8639295098	       55.2894611136	      -32.7228367217	     -101.8348698886	     -117.1551860642	       15.9753888903	       49.0715382462	       15.6950885058	       -2.9412878066	      -16.6766411349	      -43.6699013271	       11.2048156777	        0.0803283731	      -23.5215296522	       16.3086735522	       -0.8111609952	       -5.7564965361	        2.8039562054	       -0.3357455323	        0.1699584641	        4.0803111170	       10.3598584365	      -19.2304297622	       -4.9075879025	        2.4374958996	        0.5810292588	       -1.1893250397	       -0.0054443921	       -0.0417713764	        0.0929565976	        1.1749632467	       -2.9056899011	       -0.3194565445	        0.3436439954	        0.0263446862	        0.0525678386	        0.0103441308	
        0.7500000000	       16.5039307291	       47.2710084857	      -27.4365464576	     -104.1705886607	     -154.6874276420	       23.9846376308	       40.0246577946	       12.6660480727	       -0.2132981370	      -23.2080225480	      -35.6738206854	        8.7674943821	        0.1344339843	      -26.1047241743	       19.0882357142	       -1.0837054663	       -6.7951775374	        2.7541842352	       -0.2512861768	        0.1686790998	        2.6995227757	        8.2475666965	      -14.4790701223	       -5.0949642600	        3.1543260508	        1.2428777423	       -1.7186835034	        0.0240891238	        0.0144686184	        0.1530439725	        0.1229394511	       -3.9646190846	       -0.9762453876	       -0.1857487642	        0.0187009522	       -0.0223230903	        0.0426880000	
        0.7550000000	       25.0348949538	       24.6435756949	      -19.8304051115	     -101.9305008053	     -177.3327329062	       30.0625073892	       21.2798316934	        6.4057735049	        4.5475393466	      -34.4966978054	      -32.0849302044	        5.9158646829	        0.1892550993	      -29.0218062219	       20.3427500620	       -1.1067858682	       -8.5389070866	        2.6935267307	       -0.1761178146	        0.1659490669	       -0.2759928948	        5.8167008449	      -10.0878138083	       -5.0723164293	        3.6246158682	        1.7396247213	       -2.1288077751	        0.0477201603	        0.0586802254	        0.2016641571	       -0.7289883244	       -4.7014729982	       -1.4831960982	       -0.6431979908	        0.0121857329	       -0.0841139187	        0.0720367010	
